<svg width="33" height="33" viewBox="0 0 33 33" fill="none" xmlns="http://www.w3.org/2000/svg">
<path fill-rule="evenodd" clip-rule="evenodd" d="M15.7693 27.8365C15.9569 27.9677 16.1575 28.0257 16.3525 28.0229C16.5475 28.0257 16.7481 27.9677 16.9358 27.8365L18.6007 26.6729C21.866 24.3907 25.8594 24.018 29.3949 25.6654C30.6992 26.2731 32.1179 25.1542 32.1179 23.5179V3.60065C32.1179 2.61332 31.6019 1.72546 30.8149 1.35877C26.2611 -0.763037 21.1177 -0.282958 16.9121 2.65643L16.3525 3.0475L15.793 2.65643C11.5874 -0.282958 6.44391 -0.763037 1.89016 1.35877C1.10319 1.72546 0.587158 2.61332 0.587158 3.60065V23.5179C0.587158 25.1542 2.00588 26.2731 3.31012 25.6654C6.84567 24.018 10.8391 24.3907 14.1043 26.6729L15.7693 27.8365ZM2.78698 3.70114V23.1536C6.88713 21.3632 11.4716 21.8444 15.2361 24.4756L15.2526 24.4871V5.26711L14.6612 4.85376C11.0696 2.34355 6.68261 1.91931 2.78698 3.70114ZM17.4689 24.4756L17.4524 24.4871V5.26711L18.0439 4.85376C21.6354 2.34355 26.0224 1.91931 29.9181 3.70114V23.1536C25.8179 21.3632 21.2335 21.8444 17.4689 24.4756Z" fill="white"/>
<path d="M12.3564 28.5305C9.38834 26.5137 5.71815 26.5137 2.75008 28.5305L2.5994 28.6329C2.07469 28.9894 1.89745 29.774 2.20353 30.3852C2.50962 30.9964 3.18311 31.2029 3.70783 30.8463L3.8585 30.7439C6.14164 29.1925 8.96486 29.1925 11.248 30.7439L12.8425 31.8274C15.0115 33.3013 17.6936 33.3013 19.8625 31.8274L21.4571 30.7439C23.7402 29.1925 26.5634 29.1925 28.8465 30.7439L28.9972 30.8463C29.5219 31.2029 30.1954 30.9964 30.5015 30.3852C30.8076 29.774 30.6304 28.9894 30.1056 28.6329L29.955 28.5305C26.9869 26.5137 23.3167 26.5137 20.3486 28.5305L18.7541 29.614C17.2701 30.6224 15.435 30.6224 13.9509 29.614L12.3564 28.5305Z" fill="white"/>
</svg>
