<svg xmlns="http://www.w3.org/2000/svg" viewBox="0 0 290.76 76.39"><defs><style>.cls-1{fill:#fff;}</style></defs><title>logo</title><g id="Layer_1" data-name="Layer 1"><path class="cls-1" d="M118.32,32.59V23.35l-4.38,5-4.38-5v9.24h-4V16.93h2.57l5.79,6.7,5.79-6.7h2.57V32.59Z"/><path class="cls-1" d="M142.72,24.76a8,8,0,1,1-8-8A8,8,0,0,1,142.72,24.76Zm-12.09,0a4,4,0,1,0,8.08,0,4,4,0,1,0-8.08,0Z"/><path class="cls-1" d="M160.22,19.63l-2.38,2.57A5.17,5.17,0,0,0,154,20.6a4,4,0,0,0-4,4.17,4,4,0,0,0,4,4.17,5.17,5.17,0,0,0,3.79-1.6l2.38,2.57a8,8,0,1,1,0-10.27Z"/><path class="cls-1" d="M168.28,32.59h-4V16.93h4v5.73h2.35l4.13-5.73h4.42l-5.45,7.64,5.73,8H175l-4.38-6.08h-2.35Z"/><path class="cls-1" d="M197.5,24.76a8,8,0,1,1-8-8A8,8,0,0,1,197.5,24.76Zm-12.09,0a4,4,0,1,0,8.08,0,4,4,0,1,0-8.08,0Z"/><path class="cls-1" d="M210,16.93c3.73,0,5.39,1.6,5.39,4.26a3.11,3.11,0,0,1-2.13,3.23,3.38,3.38,0,0,1,2.85,3.51c0,3.32-1.82,4.67-6.07,4.67h-8.24V16.93Zm-4.23,6.17h4c1.13,0,1.63-.56,1.63-1.41s-.53-1.38-1.69-1.38h-3.95Zm4.35,6.11c1.5,0,2-.72,2-1.63s-.5-1.57-1.94-1.6h-4.41v3.23Z"/><path class="cls-1" d="M233.66,19.63l-2.38,2.57a5.17,5.17,0,0,0-3.79-1.6,4,4,0,0,0-4,4.17,4,4,0,0,0,4,4.17,5.17,5.17,0,0,0,3.79-1.6l2.38,2.57a8,8,0,1,1,0-10.27Z"/><path class="cls-1" d="M241.72,32.59h-4V16.93h4v5.73h2.35l4.13-5.73h4.42l-5.45,7.64,5.73,8h-4.45l-4.38-6.08h-2.35Z"/><path class="cls-1" d="M266.92,32.59V23.35l-8,9.24h-2.57V16.93h4v9.24l8-9.24h2.57V32.59Z"/><path class="cls-1" d="M286.79,32.59V23.35l-8,9.24H276.2V16.93h4v9.24l8-9.24h2.57V32.59Zm-8.17-21.76h2.76a2.06,2.06,0,0,0,2.16,2,2.08,2.08,0,0,0,2.19-2h2.72a4.92,4.92,0,0,1-9.83,0Z"/><path class="cls-1" d="M116.38,61.82V50h-6.83V61.82h-4V46.16h14.78V61.82Z"/><path class="cls-1" d="M140.8,54a8,8,0,1,1-8-8A8,8,0,0,1,140.8,54Zm-12.09,0a4,4,0,1,0,8.08,0,4,4,0,1,0-8.08,0Z"/><path class="cls-1" d="M146.77,61.82h-4.23l7.23-15.66h2.57l7.23,15.66h-4.2L151.06,52Z"/><path class="cls-1" d="M173.58,61.82V52.58l-8,9.24H163V46.16h4V55.4l8-9.24h2.57V61.82Z"/><path class="cls-1" d="M190.27,61.82h-3.95V50h-4.88V46.16h13.72V50h-4.88Z"/><path class="cls-1" d="M212.28,50.17a7.61,7.61,0,0,1,.25,4.92H201.6c0,2.13,1.75,3.29,3.88,3.29a10.6,10.6,0,0,0,4.73-1.1l2.1,2.29A11.56,11.56,0,0,1,205.49,62a7.7,7.7,0,0,1-8-8c0-4.45,3-8,7.89-8A7.08,7.08,0,0,1,212.28,50.17Zm-10.52,2.41h7.17a2.42,2.42,0,0,0-.38-1.25,3.47,3.47,0,0,0-3.16-1.75A3.43,3.43,0,0,0,201.76,52.58Z"/><path class="cls-1" d="M219.65,61.82H215l6.11-8.14-5.76-7.52H220l3.48,4.32,3.38-4.32h4.57l-5.76,7.67,6.14,8h-4.6L223.37,57Z"/><circle class="cls-1" cx="57.93" cy="38.51" r="0.03"/><circle class="cls-1" cx="57.77" cy="40.98" r="0.06"/><circle class="cls-1" cx="57.31" cy="43.41" r="0.1"/><circle class="cls-1" cx="56.55" cy="45.76" r="0.18"/><circle class="cls-1" cx="55.49" cy="48" r="0.27"/><circle class="cls-1" cx="54.17" cy="50.09" r="0.29"/><circle class="cls-1" cx="52.59" cy="51.99" r="0.35"/><circle class="cls-1" cx="50.79" cy="53.69" r="0.38"/><circle class="cls-1" cx="48.79" cy="55.14" r="0.4"/><circle class="cls-1" cx="46.62" cy="56.33" r="0.43"/><circle class="cls-1" cx="44.32" cy="57.24" r="0.44"/><circle class="cls-1" cx="41.93" cy="57.86" r="0.45"/><circle class="cls-1" cx="39.47" cy="58.17" r="0.46"/><circle class="cls-1" cx="37" cy="58.17" r="0.46"/><circle class="cls-1" cx="34.54" cy="57.86" r="0.47"/><circle class="cls-1" cx="32.15" cy="57.24" r="0.49"/><circle class="cls-1" cx="29.85" cy="56.33" r="0.51"/><circle class="cls-1" cx="27.68" cy="55.14" r="0.55"/><circle class="cls-1" cx="25.68" cy="53.69" r="0.61"/><circle class="cls-1" cx="23.88" cy="51.99" r="0.63"/><circle class="cls-1" cx="22.3" cy="50.09" r="0.68"/><circle class="cls-1" cx="20.98" cy="48" r="0.75"/><circle class="cls-1" cx="19.92" cy="45.76" r="0.77"/><circle class="cls-1" cx="19.16" cy="43.41" r="0.81"/><circle class="cls-1" cx="18.7" cy="40.98" r="0.82"/><circle class="cls-1" cx="18.54" cy="38.51" r="0.84"/><circle class="cls-1" cx="18.7" cy="36.04" r="0.84"/><circle class="cls-1" cx="19.16" cy="33.61" r="0.85"/><circle class="cls-1" cx="19.92" cy="31.26" r="0.87"/><circle class="cls-1" cx="20.98" cy="29.02" r="0.9"/><circle class="cls-1" cx="22.3" cy="26.94" r="0.95"/><circle class="cls-1" cx="23.88" cy="25.03" r="0.97"/><circle class="cls-1" cx="25.68" cy="23.34" r="1.02"/><circle class="cls-1" cx="27.68" cy="21.88" r="1.04"/><circle class="cls-1" cx="29.85" cy="20.69" r="1.05"/><circle class="cls-1" cx="32.15" cy="19.78" r="1.07"/><circle class="cls-1" cx="34.54" cy="19.17" r="1.08"/><circle class="cls-1" cx="54.17" cy="26.94" r="1.15"/><circle class="cls-1" cx="59.9" cy="38.51" r="0.01"/><circle class="cls-1" cx="59.76" cy="40.98" r="0.04"/><circle class="cls-1" cx="59.34" cy="43.42" r="0.1"/><circle class="cls-1" cx="58.64" cy="45.79" r="0.16"/><circle class="cls-1" cx="57.68" cy="48.07" r="0.23"/><circle class="cls-1" cx="56.46" cy="50.22" r="0.27"/><circle class="cls-1" cx="55.01" cy="52.23" r="0.31"/><circle class="cls-1" cx="53.33" cy="54.05" r="0.34"/><circle class="cls-1" cx="51.46" cy="55.67" r="0.38"/><circle class="cls-1" cx="49.42" cy="57.06" r="0.39"/><circle class="cls-1" cx="47.23" cy="58.22" r="0.42"/><circle class="cls-1" cx="44.93" cy="59.12" r="0.44"/><circle class="cls-1" cx="42.54" cy="59.74" r="0.45"/><circle class="cls-1" cx="40.09" cy="60.1" r="0.46"/><circle class="cls-1" cx="37.62" cy="60.17" r="0.46"/><circle class="cls-1" cx="35.15" cy="59.96" r="0.47"/><circle class="cls-1" cx="32.73" cy="59.46" r="0.48"/><circle class="cls-1" cx="30.37" cy="58.7" r="0.5"/><circle class="cls-1" cx="28.12" cy="57.67" r="0.52"/><circle class="cls-1" cx="26.01" cy="56.4" r="0.58"/><circle class="cls-1" cx="24.05" cy="54.88" r="0.62"/><circle class="cls-1" cx="22.27" cy="53.16" r="0.66"/><circle class="cls-1" cx="20.71" cy="51.25" r="0.7"/><circle class="cls-1" cx="19.37" cy="49.17" r="0.75"/><circle class="cls-1" cx="18.28" cy="46.95" r="0.77"/><circle class="cls-1" cx="17.45" cy="44.62" r="0.8"/><circle class="cls-1" cx="16.89" cy="42.21" r="0.82"/><circle class="cls-1" cx="16.61" cy="39.75" r="0.83"/><circle class="cls-1" cx="16.61" cy="37.28" r="0.84"/><circle class="cls-1" cx="16.89" cy="34.82" r="0.85"/><circle class="cls-1" cx="17.45" cy="32.41" r="0.86"/><circle class="cls-1" cx="18.28" cy="30.08" r="0.87"/><circle class="cls-1" cx="19.37" cy="27.86" r="0.88"/><circle class="cls-1" cx="20.71" cy="25.78" r="0.93"/><circle class="cls-1" cx="22.27" cy="23.86" r="0.96"/><circle class="cls-1" cx="24.05" cy="22.14" r="1"/><circle class="cls-1" cx="26.01" cy="20.63" r="1.02"/><circle class="cls-1" cx="28.12" cy="19.35" r="1.04"/><circle class="cls-1" cx="30.37" cy="18.32" r="1.05"/><circle class="cls-1" cx="32.73" cy="17.56" r="1.08"/><circle class="cls-1" cx="35.15" cy="17.07" r="1.09"/><circle class="cls-1" cx="61.87" cy="38.51" r="0.02"/><circle class="cls-1" cx="61.74" cy="40.98" r="0.06"/><circle class="cls-1" cx="61.35" cy="43.43" r="0.1"/><circle class="cls-1" cx="60.71" cy="45.82" r="0.19"/><circle class="cls-1" cx="59.82" cy="48.12" r="0.19"/><circle class="cls-1" cx="58.7" cy="50.33" r="0.27"/><circle class="cls-1" cx="57.35" cy="52.4" r="0.28"/><circle class="cls-1" cx="55.8" cy="54.33" r="0.32"/><circle class="cls-1" cx="54.05" cy="56.08" r="0.36"/><circle class="cls-1" cx="52.13" cy="57.63" r="0.39"/><circle class="cls-1" cx="50.05" cy="58.98" r="0.41"/><circle class="cls-1" cx="47.85" cy="60.1" r="0.43"/><circle class="cls-1" cx="45.54" cy="60.99" r="0.44"/><circle class="cls-1" cx="43.15" cy="61.63" r="0.45"/><circle class="cls-1" cx="40.71" cy="62.02" r="0.46"/><circle class="cls-1" cx="38.23" cy="62.15" r="0.46"/><circle class="cls-1" cx="35.76" cy="62.02" r="0.46"/><circle class="cls-1" cx="33.32" cy="61.63" r="0.48"/><circle class="cls-1" cx="30.93" cy="60.99" r="0.51"/><circle class="cls-1" cx="28.62" cy="60.1" r="0.52"/><circle class="cls-1" cx="26.42" cy="58.98" r="0.56"/><circle class="cls-1" cx="24.34" cy="57.63" r="0.6"/><circle class="cls-1" cx="22.42" cy="56.08" r="0.63"/><circle class="cls-1" cx="20.67" cy="54.33" r="0.66"/><circle class="cls-1" cx="19.11" cy="52.4" r="0.71"/><circle class="cls-1" cx="17.77" cy="50.33" r="0.73"/><circle class="cls-1" cx="16.64" cy="48.12" r="0.77"/><circle class="cls-1" cx="15.76" cy="45.82" r="0.79"/><circle class="cls-1" cx="15.12" cy="43.43" r="0.82"/><circle class="cls-1" cx="14.73" cy="40.98" r="0.83"/><circle class="cls-1" cx="14.6" cy="38.51" r="0.84"/><circle class="cls-1" cx="14.73" cy="36.04" r="0.84"/><circle class="cls-1" cx="15.12" cy="33.6" r="0.86"/><circle class="cls-1" cx="15.76" cy="31.21" r="0.87"/><circle class="cls-1" cx="16.64" cy="28.9" r="0.88"/><circle class="cls-1" cx="17.77" cy="26.7" r="0.92"/><circle class="cls-1" cx="19.11" cy="24.62" r="0.93"/><circle class="cls-1" cx="20.67" cy="22.7" r="0.97"/><circle class="cls-1" cx="22.42" cy="20.95" r="0.99"/><circle class="cls-1" cx="24.34" cy="19.39" r="1.02"/><circle class="cls-1" cx="26.42" cy="18.05" r="1.04"/><circle class="cls-1" cx="28.62" cy="16.92" r="1.05"/><circle class="cls-1" cx="30.93" cy="16.04" r="1.06"/><circle class="cls-1" cx="33.32" cy="15.4" r="1.08"/><circle class="cls-1" cx="57.35" cy="24.62" r="1.16"/><circle class="cls-1" cx="63.84" cy="38.51" r="0.01"/><circle class="cls-1" cx="63.72" cy="40.98" r="0.06"/><circle class="cls-1" cx="63.36" cy="43.43" r="0.06"/><circle class="cls-1" cx="62.77" cy="45.83" r="0.17"/><circle class="cls-1" cx="61.95" cy="48.17" r="0.18"/><circle class="cls-1" cx="60.9" cy="50.41" r="0.26"/><circle class="cls-1" cx="59.65" cy="52.54" r="0.26"/><circle class="cls-1" cx="58.2" cy="54.54" r="0.3"/><circle class="cls-1" cx="56.56" cy="56.4" r="0.34"/><circle class="cls-1" cx="54.74" cy="58.08" r="0.38"/><circle class="cls-1" cx="52.78" cy="59.58" r="0.4"/><circle class="cls-1" cx="50.68" cy="60.89" r="0.42"/><circle class="cls-1" cx="48.46" cy="61.98" r="0.43"/><circle class="cls-1" cx="46.15" cy="62.86" r="0.44"/><circle class="cls-1" cx="43.76" cy="63.51" r="0.45"/><circle class="cls-1" cx="41.32" cy="63.93" r="0.45"/><circle class="cls-1" cx="38.85" cy="64.11" r="0.46"/><circle class="cls-1" cx="36.38" cy="64.05" r="0.46"/><circle class="cls-1" cx="33.92" cy="63.75" r="0.47"/><circle class="cls-1" cx="31.51" cy="63.22" r="0.47"/><circle class="cls-1" cx="29.16" cy="62.45" r="0.51"/><circle class="cls-1" cx="26.89" cy="61.46" r="0.53"/><circle class="cls-1" cx="24.73" cy="60.26" r="0.58"/><circle class="cls-1" cx="22.69" cy="58.86" r="0.61"/><circle class="cls-1" cx="20.8" cy="57.26" r="0.63"/><circle class="cls-1" cx="19.07" cy="55.49" r="0.66"/><circle class="cls-1" cx="17.52" cy="53.56" r="0.71"/><circle class="cls-1" cx="16.17" cy="51.49" r="0.71"/><circle class="cls-1" cx="15.02" cy="49.3" r="0.77"/><circle class="cls-1" cx="14.08" cy="47.01" r="0.79"/><circle class="cls-1" cx="13.38" cy="44.64" r="0.81"/><circle class="cls-1" cx="12.9" cy="42.21" r="0.82"/><circle class="cls-1" cx="12.66" cy="39.75" r="0.83"/><circle class="cls-1" cx="12.66" cy="37.28" r="0.84"/><circle class="cls-1" cx="12.9" cy="34.81" r="0.84"/><circle class="cls-1" cx="13.38" cy="32.38" r="0.85"/><circle class="cls-1" cx="14.08" cy="30.01" r="0.86"/><circle class="cls-1" cx="15.02" cy="27.72" r="0.87"/><circle class="cls-1" cx="16.17" cy="25.53" r="0.92"/><circle class="cls-1" cx="17.52" cy="23.46" r="0.93"/><circle class="cls-1" cx="19.07" cy="21.53" r="0.96"/><circle class="cls-1" cx="20.8" cy="19.76" r="0.97"/><circle class="cls-1" cx="22.69" cy="18.17" r="1"/><circle class="cls-1" cx="24.73" cy="16.76" r="1.02"/><circle class="cls-1" cx="26.89" cy="15.56" r="1.04"/><circle class="cls-1" cx="29.16" cy="14.57" r="1.05"/><circle class="cls-1" cx="31.51" cy="13.81" r="1.08"/><circle class="cls-1" cx="33.92" cy="13.27" r="1.09"/><circle class="cls-1" cx="65.81" cy="38.51" r="0.02"/><circle class="cls-1" cx="65.7" cy="40.98" r="0.05"/><circle class="cls-1" cx="65.36" cy="43.44" r="0.09"/><circle class="cls-1" cx="64.81" cy="45.85" r="0.15"/><circle class="cls-1" cx="64.05" cy="48.2" r="0.2"/><circle class="cls-1" cx="63.08" cy="50.48" r="0.23"/><circle class="cls-1" cx="61.9" cy="52.65" r="0.26"/><circle class="cls-1" cx="60.54" cy="54.72" r="0.28"/><circle class="cls-1" cx="59" cy="56.65" r="0.32"/><circle class="cls-1" cx="57.29" cy="58.44" r="0.35"/><circle class="cls-1" cx="55.43" cy="60.07" r="0.37"/><circle class="cls-1" cx="53.42" cy="61.52" r="0.39"/><circle class="cls-1" cx="51.3" cy="62.79" r="0.41"/><circle class="cls-1" cx="49.07" cy="63.87" r="0.43"/><circle class="cls-1" cx="46.75" cy="64.73" r="0.44"/><circle class="cls-1" cx="44.37" cy="65.39" r="0.45"/><circle class="cls-1" cx="41.94" cy="65.83" r="0.45"/><circle class="cls-1" cx="39.47" cy="66.06" r="0.46"/><circle class="cls-1" cx="37" cy="66.06" r="0.46"/><circle class="cls-1" cx="34.53" cy="65.83" r="0.46"/><circle class="cls-1" cx="32.1" cy="65.39" r="0.47"/><circle class="cls-1" cx="29.71" cy="64.73" r="0.49"/><circle class="cls-1" cx="27.4" cy="63.87" r="0.52"/><circle class="cls-1" cx="25.17" cy="62.79" r="0.56"/><circle class="cls-1" cx="23.05" cy="61.52" r="0.58"/><circle class="cls-1" cx="21.04" cy="60.07" r="0.61"/><circle class="cls-1" cx="19.18" cy="58.44" r="0.65"/><circle class="cls-1" cx="17.47" cy="56.65" r="0.68"/><circle class="cls-1" cx="15.93" cy="54.72" r="0.71"/><circle class="cls-1" cx="14.57" cy="52.65" r="0.74"/><circle class="cls-1" cx="13.39" cy="50.48" r="0.77"/><circle class="cls-1" cx="12.42" cy="48.2" r="0.78"/><circle class="cls-1" cx="11.66" cy="45.85" r="0.8"/><circle class="cls-1" cx="11.11" cy="43.44" r="0.82"/><circle class="cls-1" cx="10.77" cy="40.98" r="0.83"/><circle class="cls-1" cx="10.66" cy="38.51" r="0.84"/><circle class="cls-1" cx="10.77" cy="36.04" r="0.84"/><circle class="cls-1" cx="11.11" cy="33.59" r="0.85"/><circle class="cls-1" cx="11.66" cy="31.18" r="0.86"/><circle class="cls-1" cx="12.42" cy="28.82" r="0.87"/><circle class="cls-1" cx="13.39" cy="26.55" r="0.88"/><circle class="cls-1" cx="14.57" cy="24.37" r="0.91"/><circle class="cls-1" cx="15.93" cy="22.31" r="0.93"/><circle class="cls-1" cx="17.47" cy="20.37" r="0.96"/><circle class="cls-1" cx="19.18" cy="18.58" r="0.97"/><circle class="cls-1" cx="21.04" cy="16.96" r="1"/><circle class="cls-1" cx="23.05" cy="15.5" r="1.02"/><circle class="cls-1" cx="25.17" cy="14.23" r="1.03"/><circle class="cls-1" cx="27.4" cy="13.16" r="1.05"/><circle class="cls-1" cx="29.71" cy="12.29" r="1.07"/><circle class="cls-1" cx="32.1" cy="11.63" r="1.09"/><circle class="cls-1" cx="60.54" cy="22.31" r="1.15"/><circle class="cls-1" cx="67.78" cy="38.51" r="0.01"/><circle class="cls-1" cx="67.67" cy="40.98" r="0.04"/><circle class="cls-1" cx="67.36" cy="43.44" r="0.09"/><circle class="cls-1" cx="66.85" cy="45.86" r="0.14"/><circle class="cls-1" cx="66.13" cy="48.23" r="0.19"/><circle class="cls-1" cx="65.22" cy="50.53" r="0.19"/><circle class="cls-1" cx="64.12" cy="52.74" r="0.25"/><circle class="cls-1" cx="62.84" cy="54.86" r="0.29"/><circle class="cls-1" cx="61.39" cy="56.86" r="0.29"/><circle class="cls-1" cx="59.77" cy="58.73" r="0.34"/><circle class="cls-1" cx="58" cy="60.47" r="0.35"/><circle class="cls-1" cx="56.1" cy="62.04" r="0.38"/><circle class="cls-1" cx="54.06" cy="63.46" r="0.4"/><circle class="cls-1" cx="51.92" cy="64.69" r="0.42"/><circle class="cls-1" cx="49.68" cy="65.75" r="0.43"/><circle class="cls-1" cx="47.36" cy="66.61" r="0.44"/><circle class="cls-1" cx="44.98" cy="67.27" r="0.45"/><circle class="cls-1" cx="42.55" cy="67.74" r="0.45"/><circle class="cls-1" cx="40.09" cy="68" r="0.46"/><circle class="cls-1" cx="37.62" cy="68.05" r="0.46"/><circle class="cls-1" cx="35.15" cy="67.89" r="0.46"/><circle class="cls-1" cx="32.7" cy="67.53" r="0.47"/><circle class="cls-1" cx="30.29" cy="66.97" r="0.48"/><circle class="cls-1" cx="27.94" cy="66.2" r="0.5"/><circle class="cls-1" cx="25.66" cy="65.24" r="0.51"/><circle class="cls-1" cx="23.46" cy="64.1" r="0.58"/><circle class="cls-1" cx="21.37" cy="62.77" r="0.61"/><circle class="cls-1" cx="19.4" cy="61.27" r="0.62"/><circle class="cls-1" cx="17.57" cy="59.62" r="0.64"/><circle class="cls-1" cx="15.87" cy="57.82" r="0.66"/><circle class="cls-1" cx="14.33" cy="55.88" r="0.7"/><circle class="cls-1" cx="12.97" cy="53.82" r="0.72"/><circle class="cls-1" cx="11.77" cy="51.65" r="0.74"/><circle class="cls-1" cx="10.77" cy="49.39" r="0.76"/><circle class="cls-1" cx="9.95" cy="47.05" r="0.8"/><circle class="cls-1" cx="9.34" cy="44.65" r="0.81"/><circle class="cls-1" cx="8.93" cy="42.21" r="0.82"/><circle class="cls-1" cx="8.72" cy="39.75" r="0.83"/><circle class="cls-1" cx="8.72" cy="37.28" r="0.84"/><circle class="cls-1" cx="8.93" cy="34.81" r="0.84"/><circle class="cls-1" cx="9.34" cy="32.37" r="0.85"/><circle class="cls-1" cx="9.95" cy="29.97" r="0.86"/><circle class="cls-1" cx="10.77" cy="27.64" r="0.87"/><circle class="cls-1" cx="11.77" cy="25.38" r="0.9"/><circle class="cls-1" cx="12.97" cy="23.21" r="0.92"/><circle class="cls-1" cx="14.33" cy="21.15" r="0.94"/><circle class="cls-1" cx="15.87" cy="19.21" r="0.96"/><circle class="cls-1" cx="17.57" cy="17.41" r="0.96"/><circle class="cls-1" cx="19.4" cy="15.75" r="1"/><circle class="cls-1" cx="21.37" cy="14.25" r="1"/><circle class="cls-1" cx="23.46" cy="12.93" r="1.03"/><circle class="cls-1" cx="25.66" cy="11.78" r="1.05"/><circle class="cls-1" cx="27.94" cy="10.82" r="1.07"/><circle class="cls-1" cx="30.29" cy="10.06" r="1.08"/><circle class="cls-1" cx="32.7" cy="9.49" r="1.09"/><circle class="cls-1" cx="69.75" cy="38.51" r="0.01"/><circle class="cls-1" cx="69.65" cy="40.98" r="0.05"/><circle class="cls-1" cx="69.36" cy="43.44" r="0.07"/><circle class="cls-1" cx="68.88" cy="45.87" r="0.14"/><circle class="cls-1" cx="68.2" cy="48.25" r="0.17"/><circle class="cls-1" cx="67.35" cy="50.57" r="0.18"/><circle class="cls-1" cx="66.31" cy="52.82" r="0.22"/><circle class="cls-1" cx="65.1" cy="54.98" r="0.26"/><circle class="cls-1" cx="63.73" cy="57.03" r="0.28"/><circle class="cls-1" cx="62.2" cy="58.98" r="0.32"/><circle class="cls-1" cx="60.52" cy="60.79" r="0.34"/><circle class="cls-1" cx="58.7" cy="62.47" r="0.36"/><circle class="cls-1" cx="56.76" cy="64.01" r="0.39"/><circle class="cls-1" cx="54.7" cy="65.38" r="0.4"/><circle class="cls-1" cx="52.54" cy="66.59" r="0.42"/><circle class="cls-1" cx="50.29" cy="67.62" r="0.43"/><circle class="cls-1" cx="47.97" cy="68.48" r="0.44"/><circle class="cls-1" cx="45.59" cy="69.15" r="0.44"/><circle class="cls-1" cx="43.16" cy="69.64" r="0.46"/><circle class="cls-1" cx="40.71" cy="69.93" r="0.46"/><circle class="cls-1" cx="38.23" cy="70.02" r="0.46"/><circle class="cls-1" cx="35.76" cy="69.93" r="0.46"/><circle class="cls-1" cx="33.31" cy="69.64" r="0.47"/><circle class="cls-1" cx="30.88" cy="69.15" r="0.48"/><circle class="cls-1" cx="28.5" cy="68.48" r="0.5"/><circle class="cls-1" cx="26.18" cy="67.62" r="0.51"/><circle class="cls-1" cx="23.93" cy="66.59" r="0.53"/><circle class="cls-1" cx="21.77" cy="65.38" r="0.55"/><circle class="cls-1" cx="19.71" cy="64.01" r="0.58"/><circle class="cls-1" cx="17.77" cy="62.47" r="0.62"/><circle class="cls-1" cx="15.95" cy="60.79" r="0.64"/><circle class="cls-1" cx="14.27" cy="58.98" r="0.68"/><circle class="cls-1" cx="12.74" cy="57.03" r="0.72"/><circle class="cls-1" cx="11.37" cy="54.98" r="0.74"/><circle class="cls-1" cx="10.16" cy="52.82" r="0.75"/><circle class="cls-1" cx="9.12" cy="50.57" r="0.78"/><circle class="cls-1" cx="8.27" cy="48.25" r="0.79"/><circle class="cls-1" cx="7.59" cy="45.87" r="0.81"/><circle class="cls-1" cx="7.11" cy="43.44" r="0.82"/><circle class="cls-1" cx="6.82" cy="40.98" r="0.84"/><circle class="cls-1" cx="6.72" cy="38.51" r="0.84"/><circle class="cls-1" cx="6.82" cy="36.04" r="0.84"/><circle class="cls-1" cx="7.11" cy="33.58" r="0.85"/><circle class="cls-1" cx="7.59" cy="31.16" r="0.86"/><circle class="cls-1" cx="8.27" cy="28.77" r="0.86"/><circle class="cls-1" cx="9.12" cy="26.45" r="0.87"/><circle class="cls-1" cx="10.16" cy="24.21" r="0.89"/><circle class="cls-1" cx="11.37" cy="22.05" r="0.9"/><circle class="cls-1" cx="12.74" cy="19.99" r="0.93"/><circle class="cls-1" cx="14.27" cy="18.05" r="0.95"/><circle class="cls-1" cx="15.95" cy="16.23" r="0.96"/><circle class="cls-1" cx="17.77" cy="14.55" r="1"/><circle class="cls-1" cx="19.71" cy="13.02" r="1"/><circle class="cls-1" cx="21.77" cy="11.64" r="1.03"/><circle class="cls-1" cx="23.93" cy="10.44" r="1.04"/><circle class="cls-1" cx="26.18" cy="9.4" r="1.06"/><circle class="cls-1" cx="28.5" cy="8.54" r="1.07"/><circle class="cls-1" cx="30.88" cy="7.87" r="1.08"/><circle class="cls-1" cx="33.31" cy="7.39" r="1.09"/><circle class="cls-1" cx="63.73" cy="19.99" r="1.16"/><circle class="cls-1" cx="71.72" cy="38.51" r="0.02"/><circle class="cls-1" cx="71.62" cy="40.98" r="0.04"/><circle class="cls-1" cx="71.35" cy="43.44" r="0.08"/><circle class="cls-1" cx="70.9" cy="45.88" r="0.11"/><circle class="cls-1" cx="70.26" cy="48.27" r="0.17"/><circle class="cls-1" cx="69.45" cy="50.61" r="0.19"/><circle class="cls-1" cx="68.48" cy="52.88" r="0.23"/><circle class="cls-1" cx="67.33" cy="55.07" r="0.24"/><circle class="cls-1" cx="66.03" cy="57.18" r="0.28"/><circle class="cls-1" cx="64.58" cy="59.18" r="0.31"/><circle class="cls-1" cx="62.98" cy="61.07" r="0.32"/><circle class="cls-1" cx="61.24" cy="62.83" r="0.34"/><circle class="cls-1" cx="59.38" cy="64.47" r="0.36"/><circle class="cls-1" cx="57.41" cy="65.96" r="0.37"/><circle class="cls-1" cx="55.33" cy="67.3" r="0.4"/><circle class="cls-1" cx="53.16" cy="68.48" r="0.42"/><circle class="cls-1" cx="50.9" cy="69.5" r="0.43"/><circle class="cls-1" cx="48.58" cy="70.35" r="0.44"/><circle class="cls-1" cx="46.2" cy="71.03" r="0.44"/><circle class="cls-1" cx="43.78" cy="71.53" r="0.45"/><circle class="cls-1" cx="41.32" cy="71.85" r="0.46"/><circle class="cls-1" cx="38.85" cy="71.99" r="0.46"/><circle class="cls-1" cx="36.38" cy="71.94" r="0.46"/><circle class="cls-1" cx="33.92" cy="71.71" r="0.46"/><circle class="cls-1" cx="31.48" cy="71.3" r="0.47"/><circle class="cls-1" cx="29.07" cy="70.71" r="0.5"/><circle class="cls-1" cx="26.72" cy="69.95" r="0.51"/><circle class="cls-1" cx="24.43" cy="69.01" r="0.53"/><circle class="cls-1" cx="22.21" cy="67.91" r="0.55"/><circle class="cls-1" cx="20.09" cy="66.65" r="0.57"/><circle class="cls-1" cx="18.06" cy="65.23" r="0.6"/><circle class="cls-1" cx="16.14" cy="63.67" r="0.62"/><circle class="cls-1" cx="14.34" cy="61.97" r="0.64"/><circle class="cls-1" cx="12.68" cy="60.14" r="0.69"/><circle class="cls-1" cx="11.15" cy="58.19" r="0.7"/><circle class="cls-1" cx="9.77" cy="56.14" r="0.72"/><circle class="cls-1" cx="8.54" cy="53.99" r="0.74"/><circle class="cls-1" cx="7.48" cy="51.75" r="0.76"/><circle class="cls-1" cx="6.59" cy="49.44" r="0.79"/><circle class="cls-1" cx="5.87" cy="47.08" r="0.81"/><circle class="cls-1" cx="5.32" cy="44.66" r="0.82"/><circle class="cls-1" cx="4.96" cy="42.22" r="0.82"/><circle class="cls-1" cx="4.78" cy="39.75" r="0.84"/><circle class="cls-1" cx="4.78" cy="37.27" r="0.84"/><circle class="cls-1" cx="4.96" cy="34.81" r="0.84"/><circle class="cls-1" cx="5.32" cy="32.36" r="0.85"/><circle class="cls-1" cx="5.87" cy="29.95" r="0.86"/><circle class="cls-1" cx="6.59" cy="27.58" r="0.87"/><circle class="cls-1" cx="7.48" cy="25.27" r="0.88"/><circle class="cls-1" cx="8.54" cy="23.04" r="0.9"/><circle class="cls-1" cx="9.77" cy="20.89" r="0.92"/><circle class="cls-1" cx="11.15" cy="18.83" r="0.93"/><circle class="cls-1" cx="12.68" cy="16.89" r="0.96"/><circle class="cls-1" cx="14.34" cy="15.06" r="0.97"/><circle class="cls-1" cx="16.14" cy="13.36" r="0.99"/><circle class="cls-1" cx="18.06" cy="11.79" r="1.01"/><circle class="cls-1" cx="20.09" cy="10.38" r="1.03"/><circle class="cls-1" cx="22.21" cy="9.11" r="1.04"/><circle class="cls-1" cx="24.43" cy="8.01" r="1.05"/><circle class="cls-1" cx="26.72" cy="7.07" r="1.06"/><circle class="cls-1" cx="29.07" cy="6.31" r="1.07"/><circle class="cls-1" cx="31.48" cy="5.72" r="1.09"/><circle class="cls-1" cx="64.58" cy="17.85" r="1.14"/><circle class="cls-1" cx="73.68" cy="38.51" r="0.01"/><circle class="cls-1" cx="73.6" cy="40.99" r="0.03"/><circle class="cls-1" cx="73.34" cy="43.45" r="0.08"/><circle class="cls-1" cx="72.91" cy="45.88" r="0.12"/><circle class="cls-1" cx="72.31" cy="48.28" r="0.16"/><circle class="cls-1" cx="71.55" cy="50.64" r="0.17"/><circle class="cls-1" cx="70.62" cy="52.93" r="0.21"/><circle class="cls-1" cx="69.54" cy="55.15" r="0.24"/><circle class="cls-1" cx="68.3" cy="57.3" r="0.29"/><circle class="cls-1" cx="66.91" cy="59.35" r="0.29"/><circle class="cls-1" cx="65.39" cy="61.3" r="0.32"/><circle class="cls-1" cx="63.74" cy="63.14" r="0.33"/><circle class="cls-1" cx="61.96" cy="64.86" r="0.35"/><circle class="cls-1" cx="60.06" cy="66.45" r="0.37"/><circle class="cls-1" cx="58.06" cy="67.9" r="0.39"/><circle class="cls-1" cx="55.96" cy="69.21" r="0.4"/><circle class="cls-1" cx="53.77" cy="70.37" r="0.42"/><circle class="cls-1" cx="51.51" cy="71.38" r="0.43"/><circle class="cls-1" cx="49.19" cy="72.23" r="0.44"/><circle class="cls-1" cx="46.81" cy="72.91" r="0.45"/><circle class="cls-1" cx="44.39" cy="73.42" r="0.45"/><circle class="cls-1" cx="41.94" cy="73.77" r="0.46"/><circle class="cls-1" cx="39.47" cy="73.94" r="0.46"/><circle class="cls-1" cx="37" cy="73.94" r="0.46"/><circle class="cls-1" cx="34.53" cy="73.77" r="0.46"/><circle class="cls-1" cx="32.08" cy="73.42" r="0.47"/><circle class="cls-1" cx="29.66" cy="72.91" r="0.48"/><circle class="cls-1" cx="27.28" cy="72.23" r="0.5"/><circle class="cls-1" cx="24.95" cy="71.38" r="0.51"/><circle class="cls-1" cx="22.69" cy="70.37" r="0.53"/><circle class="cls-1" cx="20.51" cy="69.21" r="0.55"/><circle class="cls-1" cx="18.41" cy="67.9" r="0.58"/><circle class="cls-1" cx="16.41" cy="66.45" r="0.61"/><circle class="cls-1" cx="14.51" cy="64.86" r="0.63"/><circle class="cls-1" cx="12.73" cy="63.14" r="0.66"/><circle class="cls-1" cx="11.08" cy="61.3" r="0.67"/><circle class="cls-1" cx="9.55" cy="59.35" r="0.7"/><circle class="cls-1" cx="8.17" cy="57.3" r="0.72"/><circle class="cls-1" cx="6.93" cy="55.15" r="0.75"/><circle class="cls-1" cx="5.85" cy="52.93" r="0.76"/><circle class="cls-1" cx="4.92" cy="50.64" r="0.78"/><circle class="cls-1" cx="4.16" cy="48.28" r="0.8"/><circle class="cls-1" cx="3.56" cy="45.88" r="0.81"/><circle class="cls-1" cx="3.13" cy="43.45" r="0.83"/><circle class="cls-1" cx="2.87" cy="40.99" r="0.84"/><circle class="cls-1" cx="2.78" cy="38.51" r="0.84"/><circle class="cls-1" cx="2.87" cy="36.04" r="0.84"/><circle class="cls-1" cx="3.13" cy="33.58" r="0.85"/><circle class="cls-1" cx="3.56" cy="31.14" r="0.85"/><circle class="cls-1" cx="4.16" cy="28.74" r="0.86"/><circle class="cls-1" cx="4.92" cy="26.39" r="0.87"/><circle class="cls-1" cx="5.85" cy="24.09" r="0.88"/><circle class="cls-1" cx="6.93" cy="21.87" r="0.89"/><circle class="cls-1" cx="8.17" cy="19.73" r="0.93"/><circle class="cls-1" cx="9.55" cy="17.68" r="0.93"/><circle class="cls-1" cx="11.08" cy="15.73" r="0.96"/><circle class="cls-1" cx="12.73" cy="13.89" r="0.97"/><circle class="cls-1" cx="14.51" cy="12.17" r="0.99"/><circle class="cls-1" cx="16.41" cy="10.58" r="1"/><circle class="cls-1" cx="18.41" cy="9.12" r="1.01"/><circle class="cls-1" cx="20.51" cy="7.81" r="1.03"/><circle class="cls-1" cx="22.69" cy="6.65" r="1.04"/><circle class="cls-1" cx="24.95" cy="5.64" r="1.06"/><circle class="cls-1" cx="27.28" cy="4.8" r="1.06"/><circle class="cls-1" cx="29.66" cy="4.12" r="1.09"/><circle class="cls-1" cx="32.08" cy="3.6" r="1.09"/><circle class="cls-1" cx="66.91" cy="17.68" r="1.15"/><circle class="cls-1" cx="75.57" cy="40.99" r="0.02"/><circle class="cls-1" cx="75.33" cy="43.45" r="0.04"/><circle class="cls-1" cx="74.92" cy="45.89" r="0.1"/><circle class="cls-1" cx="74.35" cy="48.3" r="0.14"/><circle class="cls-1" cx="73.63" cy="50.66" r="0.15"/><circle class="cls-1" cx="72.75" cy="52.97" r="0.17"/><circle class="cls-1" cx="71.72" cy="55.22" r="0.21"/><circle class="cls-1" cx="70.54" cy="57.4" r="0.27"/><circle class="cls-1" cx="69.22" cy="59.49" r="0.27"/><circle class="cls-1" cx="67.76" cy="61.5" r="0.31"/><circle class="cls-1" cx="66.18" cy="63.4" r="0.32"/><circle class="cls-1" cx="64.47" cy="65.19" r="0.34"/><circle class="cls-1" cx="62.65" cy="66.87" r="0.35"/><circle class="cls-1" cx="60.73" cy="68.42" r="0.37"/><circle class="cls-1" cx="58.7" cy="69.84" r="0.39"/><circle class="cls-1" cx="56.59" cy="71.12" r="0.4"/><circle class="cls-1" cx="54.39" cy="72.26" r="0.42"/><circle class="cls-1" cx="52.12" cy="73.26" r="0.43"/><circle class="cls-1" cx="49.8" cy="74.1" r="0.44"/><circle class="cls-1" cx="47.42" cy="74.79" r="0.44"/><circle class="cls-1" cx="45" cy="75.31" r="0.45"/><circle class="cls-1" cx="42.56" cy="75.68" r="0.46"/><circle class="cls-1" cx="40.09" cy="75.89" r="0.46"/><circle class="cls-1" cx="37.62" cy="75.93" r="0.46"/><circle class="cls-1" cx="35.14" cy="75.8" r="0.46"/><circle class="cls-1" cx="32.69" cy="75.52" r="0.47"/><circle class="cls-1" cx="30.25" cy="75.07" r="0.47"/><circle class="cls-1" cx="27.85" cy="74.46" r="0.48"/><circle class="cls-1" cx="25.5" cy="73.7" r="0.5"/><circle class="cls-1" cx="23.2" cy="72.78" r="0.53"/><circle class="cls-1" cx="20.97" cy="71.71" r="0.55"/><circle class="cls-1" cx="18.82" cy="70.5" r="0.56"/><circle class="cls-1" cx="16.74" cy="69.14" r="0.6"/><circle class="cls-1" cx="14.77" cy="67.66" r="0.61"/><circle class="cls-1" cx="12.89" cy="66.04" r="0.63"/><circle class="cls-1" cx="11.13" cy="64.31" r="0.66"/><circle class="cls-1" cx="9.48" cy="62.46" r="0.7"/><circle class="cls-1" cx="7.96" cy="60.51" r="0.7"/><circle class="cls-1" cx="6.57" cy="58.46" r="0.74"/><circle class="cls-1" cx="5.33" cy="56.32" r="0.75"/><circle class="cls-1" cx="4.22" cy="54.11" r="0.77"/><circle class="cls-1" cx="3.26" cy="51.83" r="0.78"/><circle class="cls-1" cx="2.46" cy="49.49" r="0.79"/><circle class="cls-1" cx="1.81" cy="47.1" r="0.82"/><circle class="cls-1" cx="1.33" cy="44.67" r="0.82"/><circle class="cls-1" cx="1" cy="42.22" r="0.83"/><circle class="cls-1" cx="0.84" cy="39.75" r="0.84"/><circle class="cls-1" cx="0.84" cy="37.27" r="0.84"/><circle class="cls-1" cx="1" cy="34.81" r="0.84"/><circle class="cls-1" cx="1.33" cy="32.35" r="0.84"/><circle class="cls-1" cx="1.81" cy="29.93" r="0.85"/><circle class="cls-1" cx="2.46" cy="27.54" r="0.86"/><circle class="cls-1" cx="3.26" cy="25.2" r="0.87"/><circle class="cls-1" cx="4.22" cy="22.92" r="0.88"/><circle class="cls-1" cx="5.33" cy="20.7" r="0.9"/><circle class="cls-1" cx="6.57" cy="18.57" r="0.92"/><circle class="cls-1" cx="7.96" cy="16.52" r="0.93"/><circle class="cls-1" cx="9.48" cy="14.56" r="0.94"/><circle class="cls-1" cx="11.13" cy="12.72" r="0.96"/><circle class="cls-1" cx="12.89" cy="10.98" r="0.98"/><circle class="cls-1" cx="14.77" cy="9.37" r="0.99"/><circle class="cls-1" cx="16.74" cy="7.88" r="1.01"/><circle class="cls-1" cx="18.82" cy="6.53" r="1.02"/><circle class="cls-1" cx="20.97" cy="5.31" r="1.04"/><circle class="cls-1" cx="23.2" cy="4.24" r="1.05"/><circle class="cls-1" cx="25.5" cy="3.33" r="1.07"/><circle class="cls-1" cx="27.85" cy="2.56" r="1.08"/><circle class="cls-1" cx="30.25" cy="1.95" r="1.09"/><circle class="cls-1" cx="32.69" cy="1.51" r="1.09"/><path class="cls-1" d="M34.67,2.19l-.14,0a1.09,1.09,0,0,0-.44,2.09,1,1,0,0,0-.18,0,1.1,1.1,0,1,0,.44.09,1,1,0,0,0,.18,0A1.09,1.09,0,0,0,35,2.28l.14,0a1.12,1.12,0,1,0-.48-.12Z"/><path class="cls-1" d="M37,2h0a1.1,1.1,0,0,0-1.1,1.1,1.08,1.08,0,0,0,.52.91h0a1.1,1.1,0,0,0-1.1,1.1,1.08,1.08,0,0,0,.55.93h-.07a1.09,1.09,0,0,0-.49,2.06l-.12,0a1.09,1.09,0,0,0-.43,2.09,1,1,0,0,0-.18,0,1.1,1.1,0,1,0,.43.09,1,1,0,0,0,.18,0,1.08,1.08,0,0,0,.49-2.05l.12,0a1.1,1.1,0,0,0,1.1-1.1,1.08,1.08,0,0,0-.55-.93h.07a1.1,1.1,0,0,0,1.1-1.1A1.08,1.08,0,0,0,37,4.17h0a1.1,1.1,0,0,0,1.1-1.1,1.08,1.08,0,0,0-.49-.89h0a1.1,1.1,0,1,0-1.1-1.1A1.08,1.08,0,0,0,37,2Z"/><path class="cls-1" d="M39.43,2a1.09,1.09,0,0,0-1.06,1.09,1.08,1.08,0,0,0,.45.86A1.09,1.09,0,0,0,37.76,5a1.08,1.08,0,0,0,.46.87A1.1,1.1,0,0,0,37.14,7a1.08,1.08,0,0,0,.47.88A1.1,1.1,0,0,0,36.52,9a1.08,1.08,0,0,0,.5.9h0A1.1,1.1,0,0,0,35.9,11a1.08,1.08,0,0,0,.55.93h-.07a1.08,1.08,0,0,0-.49,2.06l-.13,0a1.13,1.13,0,1,0,.49.13l.13,0A1.09,1.09,0,0,0,37.47,13a1.08,1.08,0,0,0-.55-.93H37A1.1,1.1,0,0,0,38.1,11a1.08,1.08,0,0,0-.5-.9h0A1.1,1.1,0,0,0,38.71,9a1.08,1.08,0,0,0-.47-.88A1.1,1.1,0,0,0,39.33,7a1.08,1.08,0,0,0-.46-.87A1.1,1.1,0,0,0,40,5a1.08,1.08,0,0,0-.45-.86,1.09,1.09,0,0,0,1.07-1.09,1.08,1.08,0,0,0-.44-.86A1.09,1.09,0,1,0,39,1.14,1.08,1.08,0,0,0,39.43,2Z"/><path class="cls-1" d="M41.86,2.17a1.07,1.07,0,0,0-.61,1.92,1.09,1.09,0,0,0-1,1.08,1.08,1.08,0,0,0,.42.84,1.09,1.09,0,0,0-1,1.08,1.08,1.08,0,0,0,.42.84A1.09,1.09,0,0,0,39,9a1.08,1.08,0,0,0,.43.85A1.09,1.09,0,0,0,38.37,11a1.08,1.08,0,0,0,.44.86,1.09,1.09,0,0,0-1.06,1.09,1.08,1.08,0,0,0,.46.87,1.1,1.1,0,0,0-1.08,1.09,1.08,1.08,0,0,0,.48.88,1.1,1.1,0,0,0-1.1,1.1,1.08,1.08,0,0,0,.53.92H37a1.09,1.09,0,1,0,1.09,1.09,1.07,1.07,0,0,0-.53-.91h.05a1.1,1.1,0,0,0,1.1-1.1,1.08,1.08,0,0,0-.48-.88,1.1,1.1,0,0,0,1.1-1.1,1.08,1.08,0,0,0-.46-.87A1.1,1.1,0,0,0,40,12.92a1.08,1.08,0,0,0-.44-.86A1.09,1.09,0,0,0,40.57,11a1.08,1.08,0,0,0-.43-.85A1.09,1.09,0,0,0,41.19,9a1.08,1.08,0,0,0-.42-.84,1.09,1.09,0,0,0,1-1.09,1.08,1.08,0,0,0-.42-.84,1.09,1.09,0,0,0,1-1.08A1.08,1.08,0,0,0,42,4.34a1.08,1.08,0,0,0,.62-1.91,1.11,1.11,0,1,0-.77-.25Z"/><path class="cls-1" d="M44.27,2.52a1.08,1.08,0,0,0-.61,1.89,1.08,1.08,0,0,0-.6,1.9,1.07,1.07,0,0,0-.6,1.9,1.08,1.08,0,0,0-.62,1.9A1.08,1.08,0,0,0,41.22,12a1.08,1.08,0,0,0-.6,1.92,1.07,1.07,0,0,0-.6,1.92,1.09,1.09,0,0,0-1,1.08,1.08,1.08,0,0,0,.42.84,1.09,1.09,0,1,0,1.16,1.09,1.08,1.08,0,0,0-.42-.84,1.09,1.09,0,0,0,1-1.09,1.08,1.08,0,0,0-.41-.84,1.08,1.08,0,0,0,.63-1.91A1.08,1.08,0,0,0,42,12.27a1.08,1.08,0,0,0,.61-1.91,1.07,1.07,0,0,0,.61-1.9,1.08,1.08,0,0,0,.62-1.89,1.08,1.08,0,0,0,.62-1.9,1.08,1.08,0,0,0,.62-1.89,1.09,1.09,0,0,0,1-1.08,1.1,1.1,0,0,0-2.21,0A1.09,1.09,0,0,0,44.27,2.52Z"/><path class="cls-1" d="M46.67,3a1.08,1.08,0,0,0-.6,1.88,1.08,1.08,0,0,0-.61,1.88,1.08,1.08,0,0,0-.61,1.88,1.08,1.08,0,0,0-.61,1.88,1.08,1.08,0,0,0-.61,1.88A1.08,1.08,0,0,0,43,14.32a1.08,1.08,0,0,0-.61,1.88,1.08,1.08,0,0,0-.61,1.89,1.09,1.09,0,0,0-1,1.08,1.1,1.1,0,0,0,2.21,0,1.09,1.09,0,0,0-.37-.81,1.08,1.08,0,0,0,.61-1.89,1.08,1.08,0,0,0,.61-1.88,1.08,1.08,0,0,0,.61-1.88,1.08,1.08,0,0,0,.61-1.88,1.08,1.08,0,0,0,.61-1.88,1.08,1.08,0,0,0,.61-1.88,1.08,1.08,0,0,0,.61-1.88,1.08,1.08,0,0,0,.62-1.87,1.1,1.1,0,0,0,1-1.08,1.11,1.11,0,1,0-1.86.8Z"/><path class="cls-1" d="M49,3.72a1.09,1.09,0,0,0-.61,1.87,1.09,1.09,0,0,0-.61,1.87,1.09,1.09,0,0,0-.61,1.87,1.09,1.09,0,0,0-.61,1.87A1.09,1.09,0,0,0,46,13.09,1.09,1.09,0,0,0,45.38,15a1.09,1.09,0,0,0-.61,1.87,1.09,1.09,0,0,0-.61,1.87,1.09,1.09,0,0,0-1,1.08,1.11,1.11,0,1,0,1.87-.8,1.09,1.09,0,0,0,.61-1.87,1.09,1.09,0,0,0,.61-1.87,1.09,1.09,0,0,0,.61-1.87,1.09,1.09,0,0,0,.61-1.87,1.09,1.09,0,0,0,.61-1.87,1.09,1.09,0,0,0,.61-1.87,1.09,1.09,0,0,0,.61-1.87A1.09,1.09,0,0,0,50,4a1.1,1.1,0,0,0,1-1.08,1.11,1.11,0,1,0-1.87.8Z"/><path class="cls-1" d="M51.36,4.57a1.09,1.09,0,0,0-.61,1.88,1.09,1.09,0,0,0-.61,1.88,1.09,1.09,0,0,0-.61,1.88,1.09,1.09,0,0,0-.61,1.88A1.09,1.09,0,0,0,48.31,14a1.09,1.09,0,0,0-.61,1.88,1.09,1.09,0,0,0-.62,1.88,1.09,1.09,0,0,0-.61,1.89,1.1,1.1,0,0,0-1,1.08,1.11,1.11,0,1,0,1.87-.8A1.09,1.09,0,0,0,48,18a1.09,1.09,0,0,0,.61-1.88,1.09,1.09,0,0,0,.61-1.88,1.09,1.09,0,0,0,.61-1.88,1.09,1.09,0,0,0,.61-1.88,1.09,1.09,0,0,0,.61-1.88,1.09,1.09,0,0,0,.61-1.88,1.09,1.09,0,0,0,.61-1.88,1.1,1.1,0,0,0,1-1.08,1.11,1.11,0,1,0-1.87.8Z"/><path class="cls-1" d="M53.62,5.56A1.1,1.1,0,0,0,53,7.45a1.1,1.1,0,0,0-.61,1.89,1.1,1.1,0,0,0-.61,1.9,1.1,1.1,0,0,0-.62,1.9,1.1,1.1,0,0,0-.62,1.9A1.1,1.1,0,0,0,49.92,17a1.1,1.1,0,0,0-.63,1.91,1.1,1.1,0,0,0-.63,1.92,1.11,1.11,0,0,0-1,1.1,1.12,1.12,0,1,0,2.25,0,1.11,1.11,0,0,0-.37-.82,1.1,1.1,0,0,0,.64-1.92,1.1,1.1,0,0,0,.63-1.91,1.1,1.1,0,0,0,.63-1.91,1.1,1.1,0,0,0,.63-1.9,1.1,1.1,0,0,0,.62-1.9,1.1,1.1,0,0,0,.62-1.89,1.1,1.1,0,0,0,.62-1.89,1.1,1.1,0,0,0,.61-1.89,1.1,1.1,0,0,0,1-1.08,1.11,1.11,0,1,0-1.88.8Z"/><path class="cls-1" d="M55.82,6.71a1.1,1.1,0,0,0-.63,1.91,1.1,1.1,0,0,0-.62,1.92A1.1,1.1,0,0,0,54,12.47a1.1,1.1,0,0,0-.64,1.93,1.11,1.11,0,0,0-.63,1.94A1.1,1.1,0,0,0,52,18.28a1.11,1.11,0,0,0-.65,2,1.12,1.12,0,0,0-1.06,1.12,1.11,1.11,0,0,0,.42.86,1.13,1.13,0,1,0,1.17,1.12,1.11,1.11,0,0,0-.42-.86,1.13,1.13,0,0,0,1.09-1.12,1.11,1.11,0,0,0-.4-.85,1.11,1.11,0,0,0,.67-2,1.11,1.11,0,0,0,.66-1.94,1.11,1.11,0,0,0,.66-1.94,1.1,1.1,0,0,0,.63-1.93,1.1,1.1,0,0,0,.64-1.92,1.11,1.11,0,0,0,.64-1.92A1.1,1.1,0,0,0,56.72,7a1.11,1.11,0,0,0,1-1.09,1.12,1.12,0,1,0-1.88.81Z"/><path class="cls-1" d="M58,8A1.11,1.11,0,0,0,57.31,10a1.11,1.11,0,0,0-.64,1.95,1.11,1.11,0,0,0-.64,2,1.11,1.11,0,0,0-.65,2A1.13,1.13,0,0,0,54.3,17a1.11,1.11,0,0,0,.43.86,1.13,1.13,0,0,0-1.11,1.13,1.11,1.11,0,0,0,.44.87h0a1.14,1.14,0,0,0-1.14,1.14,1.12,1.12,0,0,0,.48.9h-.06A1.14,1.14,0,0,0,52.2,23a1.12,1.12,0,0,0,.55.95,1.07,1.07,0,0,0-.16,0A1.14,1.14,0,1,0,53.73,25a1.12,1.12,0,0,0-.55-.95,1.07,1.07,0,0,0,.16,0A1.14,1.14,0,0,0,54.47,23a1.12,1.12,0,0,0-.48-.9H54a1.14,1.14,0,0,0,1.14-1.14,1.12,1.12,0,0,0-.44-.88,1.13,1.13,0,0,0,1.13-1.13,1.11,1.11,0,0,0-.42-.86A1.13,1.13,0,0,0,56.56,17a1.11,1.11,0,0,0-.41-.85A1.13,1.13,0,0,0,57.23,15a1.11,1.11,0,0,0-.4-.85,1.11,1.11,0,0,0,.67-2,1.11,1.11,0,0,0,.66-1.95,1.11,1.11,0,0,0,.65-1.94A1.12,1.12,0,1,0,58,8Z"/><path class="cls-1" d="M60,9.45a1.12,1.12,0,0,0-.66,2,1.13,1.13,0,0,0-1.08,1.13,1.12,1.12,0,0,0,.42.86,1.13,1.13,0,0,0-1.11,1.13,1.12,1.12,0,0,0,.44.87,1.14,1.14,0,0,0-1.13,1.14,1.12,1.12,0,0,0,.48.9h-.05a1.14,1.14,0,0,0-1.14,1.14,1.12,1.12,0,0,0,.53.93l-.12,0a1.14,1.14,0,0,0-1.14,1.14,1.12,1.12,0,0,0,.58,1,1.08,1.08,0,0,0-.2,0,1.13,1.13,0,0,0-.5,2.15,1.1,1.1,0,0,0-.29-.06,1.18,1.18,0,1,0,.51.13,1.1,1.1,0,0,0,.29.06,1.14,1.14,0,0,0,1.14-1.14,1.13,1.13,0,0,0-.58-1,1.07,1.07,0,0,0,.2,0,1.14,1.14,0,0,0,1.14-1.14,1.12,1.12,0,0,0-.53-.93l.12,0a1.14,1.14,0,0,0,1.14-1.14,1.12,1.12,0,0,0-.48-.9H58a1.14,1.14,0,0,0,1.14-1.14,1.12,1.12,0,0,0-.43-.87,1.14,1.14,0,0,0,1.13-1.14,1.12,1.12,0,0,0-.42-.86,1.13,1.13,0,0,0,1.11-1.13,1.12,1.12,0,0,0-.41-.86,1.13,1.13,0,0,0,1.08-1.13,1.12,1.12,0,0,0-.41-.85A1.14,1.14,0,1,0,60,9.45Z"/><path class="cls-1" d="M61.52,10.16A1.12,1.12,0,0,0,62,11a1.14,1.14,0,0,0-1.13,1.14,1.11,1.11,0,0,0,.47.9h0a1.14,1.14,0,0,0-1.14,1.14,1.12,1.12,0,0,0,.51.92l-.1,0a1.14,1.14,0,0,0-1.14,1.14,1.12,1.12,0,0,0,.55,1,1.07,1.07,0,0,0-.16,0,1.14,1.14,0,0,0-1.14,1.14,1.13,1.13,0,0,0,.59,1,1.09,1.09,0,0,0-.22,0,1.14,1.14,0,0,0-.5,2.17,1.11,1.11,0,0,0-.31-.06,1.18,1.18,0,1,0,.49.12,1.11,1.11,0,0,0,.31.06,1.15,1.15,0,0,0,1.15-1.15,1.13,1.13,0,0,0-.59-1,1.09,1.09,0,0,0,.22,0,1.14,1.14,0,0,0,1.14-1.14,1.12,1.12,0,0,0-.55-1,1.07,1.07,0,0,0,.16,0,1.14,1.14,0,0,0,1.14-1.14,1.12,1.12,0,0,0-.51-.92l.1,0a1.14,1.14,0,0,0,1.14-1.14,1.12,1.12,0,0,0-.47-.9h0a1.14,1.14,0,0,0,1.14-1.14,1.12,1.12,0,0,0-.44-.87,1.14,1.14,0,1,0-1.14-1.14Z"/><path class="cls-1" d="M63.34,11.83a1.12,1.12,0,0,0,.54.95,1.07,1.07,0,0,0-.15,0,1.14,1.14,0,0,0-1.14,1.14,1.12,1.12,0,0,0,.58,1,1.08,1.08,0,0,0-.2,0A1.13,1.13,0,0,0,62.46,17a1.1,1.1,0,0,0-.26-.05,1.14,1.14,0,0,0-.46,2.18,1.12,1.12,0,0,0-.34-.07,1.16,1.16,0,1,0,.47.1,1.11,1.11,0,0,0,.34.07A1.13,1.13,0,0,0,62.71,17a1.1,1.1,0,0,0,.26.05A1.14,1.14,0,0,0,64.12,16a1.13,1.13,0,0,0-.58-1,1.08,1.08,0,0,0,.2,0,1.14,1.14,0,0,0,1.14-1.14,1.12,1.12,0,0,0-.54-.95,1.07,1.07,0,0,0,.15,0,1.14,1.14,0,1,0-1.14-1.14Z"/><path class="cls-1" d="M65,13.63a1.13,1.13,0,0,0,.64,1,1.1,1.1,0,0,0-.29-.06,1.17,1.17,0,1,0,.5.13,1.1,1.1,0,0,0,.29.06A1.14,1.14,0,1,0,65,13.63Z"/><circle class="cls-1" cx="67.76" cy="15.53" r="1.15"/><circle class="cls-1" cx="69.22" cy="17.53" r="1.16"/><path class="cls-1" d="M69.4,19.45a1.14,1.14,0,0,0-2.26.21,1.14,1.14,0,0,0-1.12-1,1.16,1.16,0,1,0,1.14,1.23,1.14,1.14,0,0,0,2.25,0,1.15,1.15,0,0,0,1.11.89,1.17,1.17,0,0,0,0-2.34A1.15,1.15,0,0,0,69.4,19.45Z"/><path class="cls-1" d="M70.61,21.4a1.17,1.17,0,0,0-1.08-.71,1.16,1.16,0,0,0-1.11.84,1.16,1.16,0,0,0-2.23.17,1.15,1.15,0,0,0-2.25.24A1.14,1.14,0,0,0,62.84,21,1.16,1.16,0,1,0,64,22.27a1.14,1.14,0,0,0,2.24,0,1.15,1.15,0,0,0,2.22,0,1.16,1.16,0,0,0,2.18,0,1.2,1.2,0,1,0,0-.87Z"/><path class="cls-1" d="M71.67,23.57a1.17,1.17,0,0,0-2.14.07,1.17,1.17,0,0,0-2.15.09,1.16,1.16,0,0,0-2.17.11,1.17,1.17,0,0,0-1.08-.73A1.16,1.16,0,0,0,63,24a1.15,1.15,0,0,0-2.24.21,1.15,1.15,0,0,0-1.11-.91,1.16,1.16,0,0,0,0,2.33,1.15,1.15,0,0,0,1.14-1,1.14,1.14,0,0,0,2.23,0,1.15,1.15,0,0,0,2.2,0,1.17,1.17,0,0,0,2.18,0,1.18,1.18,0,0,0,2.16,0,1.17,1.17,0,0,0,2.14,0,1.18,1.18,0,1,0,0-1Z"/><path class="cls-1" d="M72.57,25.83a1.16,1.16,0,0,0-2.09,0,1.16,1.16,0,0,0-2.1,0,1.17,1.17,0,0,0-2.12,0,1.17,1.17,0,0,0-2.14.06,1.17,1.17,0,0,0-2.15.09,1.17,1.17,0,0,0-2.19.17,1.14,1.14,0,0,0-2.21.24,1.15,1.15,0,0,0-1.11-.9,1.16,1.16,0,0,0,0,2.33,1.15,1.15,0,0,0,1.13-1A1.14,1.14,0,0,0,59.8,27,1.17,1.17,0,0,0,62,27a1.18,1.18,0,0,0,2.16,0,1.17,1.17,0,0,0,2.14,0,1.16,1.16,0,0,0,2.11,0,1.16,1.16,0,0,0,2.09,0,1.16,1.16,0,0,0,2.08,0,1.18,1.18,0,0,0,1,.63,1.19,1.19,0,1,0-1.05-1.72Z"/><path class="cls-1" d="M73.32,28.14a1.16,1.16,0,0,0-2,0,1.16,1.16,0,0,0-2.05,0,1.16,1.16,0,0,0-2.07,0,1.16,1.16,0,0,0-2.08,0,1.16,1.16,0,0,0-2.09,0,1.17,1.17,0,0,0-2.12,0,1.17,1.17,0,0,0-2.14.07,1.17,1.17,0,0,0-2.16.12,1.19,1.19,0,1,0,0,.86,1.18,1.18,0,0,0,2.18,0,1.17,1.17,0,0,0,2.13,0,1.17,1.17,0,0,0,2.11,0,1.16,1.16,0,0,0,2.09,0,1.15,1.15,0,0,0,2.07,0,1.16,1.16,0,0,0,2.06,0,1.16,1.16,0,0,0,2.05,0,1.16,1.16,0,0,0,2,0,1.18,1.18,0,0,0,1,.6,1.2,1.2,0,1,0,0-2.4A1.19,1.19,0,0,0,73.32,28.14Z"/><path class="cls-1" d="M73.89,30.47a1.17,1.17,0,0,0-2,0,1.16,1.16,0,0,0-2,0,1.16,1.16,0,0,0-2,0,1.18,1.18,0,0,0-2.05,0,1.16,1.16,0,0,0-2,0,1.16,1.16,0,0,0-2.05,0,1.15,1.15,0,0,0-2.06,0,1.17,1.17,0,0,0-2.09,0,1.18,1.18,0,0,0-1-.63A1.2,1.2,0,1,0,57.6,31.8a1.17,1.17,0,0,0,2.09,0,1.15,1.15,0,0,0,2.05,0,1.16,1.16,0,0,0,2,0,1.16,1.16,0,0,0,2,0,1.18,1.18,0,0,0,2.05,0,1.16,1.16,0,0,0,2,0,1.16,1.16,0,0,0,2,0,1.17,1.17,0,0,0,2,0,1.22,1.22,0,1,0,0-1.33Z"/><path class="cls-1" d="M74.33,32.86a1.22,1.22,0,0,0-2,0,1.22,1.22,0,0,0-2,0,1.17,1.17,0,0,0-2,0,1.17,1.17,0,0,0-2,0,1.16,1.16,0,0,0-2,0,1.16,1.16,0,0,0-2,0,1.16,1.16,0,0,0-2,0,1.16,1.16,0,0,0-2,0,1.23,1.23,0,1,0,0,1.3,1.16,1.16,0,0,0,2,0,1.16,1.16,0,0,0,2,0,1.16,1.16,0,0,0,2,0,1.16,1.16,0,0,0,2,0,1.17,1.17,0,0,0,2,0,1.17,1.17,0,0,0,2,0,1.22,1.22,0,0,0,2,0,1.22,1.22,0,0,0,2,0,1.23,1.23,0,1,0,0-1.43Z"/><path class="cls-1" d="M75.57,34.79a1.24,1.24,0,0,0-1,.49,1.23,1.23,0,0,0-2,0,1.23,1.23,0,0,0-2,0,1.23,1.23,0,0,0-2,0,1.22,1.22,0,0,0-2,0,1.22,1.22,0,0,0-2,0,1.23,1.23,0,0,0-2,0,1.23,1.23,0,0,0-2,0,1.23,1.23,0,0,0-2,0,1.23,1.23,0,1,0,0,1.46,1.23,1.23,0,0,0,2,0,1.23,1.23,0,0,0,2,0,1.23,1.23,0,0,0,2,0,1.22,1.22,0,0,0,2,0,1.22,1.22,0,0,0,2,0,1.23,1.23,0,0,0,2,0,1.23,1.23,0,0,0,2,0,1.23,1.23,0,0,0,2,0,1.24,1.24,0,1,0,1-2Z"/><circle class="cls-1" cx="66.94" cy="38.51" r="9.65"/></g></svg>